<?xml version="1.0" encoding="UTF-8"?>
<svg version="1.1" xmlns="http://www.w3.org/2000/svg" width="96" height="96">
<path d="M0 0 C0.99 0.33 1.98 0.66 3 1 C3.05849554 4.20825562 3.09376162 7.41637233 3.125 10.625 C3.14175781 11.52863281 3.15851563 12.43226562 3.17578125 13.36328125 C3.21161391 18.27235596 3.12343644 22.45820539 1 27 C-1.125 27.875 -1.125 27.875 -3 28 C-1.35 28 0.3 28 2 28 C0.64527694 33.58823264 -3.58113173 36.69001754 -8 40 C-9.98 40.99 -9.98 40.99 -12 42 C-9.03 42 -6.06 42 -3 42 C-4.37926073 47.51704294 -7.31153217 49.07752172 -12 52 C-14.96136818 53.48982411 -17.92407354 54.75040487 -21 56 C-17.37 56 -13.74 56 -10 56 C-11.29012206 59.87036618 -12.82387647 60.4417845 -16.25 62.5625 C-17.20390625 63.16191406 -18.1578125 63.76132813 -19.140625 64.37890625 C-21.71817093 65.84021986 -24.22291433 66.98139741 -27 68 C-25.68 68.66 -24.36 69.32 -23 70 C-33.69891069 77.56096202 -44.07497932 79.01450213 -57 78 C-58.68996094 77.28263672 -58.68996094 77.28263672 -60.4140625 76.55078125 C-63.87007436 75.65500085 -63.87007436 75.65500085 -66.17016602 77.14868164 C-68.60831253 78.96228338 -70.90128652 80.87338523 -73.1875 82.875 C-74.75731086 84.21399383 -76.33387871 85.54511739 -77.91796875 86.8671875 C-78.60656982 87.46644043 -79.2951709 88.06569336 -80.00463867 88.68310547 C-82 90 -82 90 -86 90 C-80.42817467 73.98464867 -63.72532611 59.70496061 -51.1640625 48.9453125 C-48.51024922 46.55975472 -46.00499984 44.03923284 -43.5 41.5 C-39.83153141 37.78153524 -36.06850777 34.2633181 -32.09375 30.875 C-29.46014473 28.51654752 -26.98173486 26.01554596 -24.5 23.5 C-20.84138072 19.79153577 -17.08986797 16.28074167 -13.125 12.90234375 C-8.55387881 8.81018195 -4.301121 4.37227925 0 0 Z " fill="#2A2928" transform="translate(90,2)"/>
</svg>
